<svg width="73" height="19" viewBox="0 0 73 19" fill="none" xmlns="http://www.w3.org/2000/svg">
<path d="M7.902 14.716C6.918 14.716 6 14.542 5.148 14.194C4.296 13.846 3.552 13.36 2.916 12.736C2.28 12.112 1.782 11.38 1.422 10.54C1.074 9.688 0.9 8.77 0.9 7.786C0.9 6.79 1.074 5.872 1.422 5.032C1.77 4.192 2.262 3.46 2.898 2.836C3.534 2.212 4.278 1.732 5.13 1.396C5.982 1.048 6.906 0.873999 7.902 0.873999C8.898 0.873999 9.822 1.048 10.674 1.396C11.526 1.744 12.27 2.23 12.906 2.854C13.542 3.466 14.034 4.192 14.382 5.032C14.742 5.872 14.922 6.79 14.922 7.786C14.922 8.77 14.742 9.688 14.382 10.54C14.022 11.38 13.524 12.112 12.888 12.736C12.252 13.36 11.508 13.846 10.656 14.194C9.816 14.542 8.898 14.716 7.902 14.716ZM7.902 12.484C8.562 12.484 9.168 12.37 9.72 12.142C10.272 11.902 10.752 11.572 11.16 11.152C11.58 10.732 11.898 10.234 12.114 9.658C12.342 9.082 12.456 8.458 12.456 7.786C12.456 7.114 12.342 6.496 12.114 5.932C11.898 5.356 11.58 4.858 11.16 4.438C10.752 4.006 10.272 3.676 9.72 3.448C9.168 3.22 8.562 3.106 7.902 3.106C7.254 3.106 6.654 3.22 6.102 3.448C5.55 3.676 5.064 4.006 4.644 4.438C4.236 4.858 3.918 5.356 3.69 5.932C3.462 6.496 3.348 7.114 3.348 7.786C3.348 8.458 3.462 9.082 3.69 9.658C3.918 10.234 4.236 10.732 4.644 11.152C5.064 11.572 5.55 11.902 6.102 12.142C6.654 12.37 7.254 12.484 7.902 12.484ZM16.9007 14.5V4.708H19.1147V6.634L18.9347 6.292C19.1627 5.704 19.5347 5.26 20.0507 4.96C20.5787 4.648 21.1907 4.492 21.8867 4.492C22.6067 4.492 23.2427 4.648 23.7947 4.96C24.3587 5.272 24.7967 5.71 25.1087 6.274C25.4207 6.826 25.5767 7.468 25.5767 8.2V14.5H23.2187V8.758C23.2187 8.326 23.1347 7.954 22.9667 7.642C22.7987 7.33 22.5647 7.09 22.2647 6.922C21.9767 6.742 21.6347 6.652 21.2387 6.652C20.8547 6.652 20.5127 6.742 20.2127 6.922C19.9127 7.09 19.6787 7.33 19.5107 7.642C19.3427 7.954 19.2587 8.326 19.2587 8.758V14.5H16.9007ZM32.2147 14.716C31.2067 14.716 30.3247 14.488 29.5687 14.032C28.8127 13.576 28.2247 12.958 27.8047 12.178C27.3847 11.398 27.1747 10.534 27.1747 9.586C27.1747 8.602 27.3847 7.732 27.8047 6.976C28.2367 6.208 28.8187 5.602 29.5507 5.158C30.2947 4.714 31.1227 4.492 32.0347 4.492C32.8027 4.492 33.4747 4.618 34.0507 4.87C34.6387 5.122 35.1367 5.47 35.5447 5.914C35.9527 6.358 36.2647 6.868 36.4807 7.444C36.6967 8.008 36.8047 8.62 36.8047 9.28C36.8047 9.448 36.7927 9.622 36.7687 9.802C36.7567 9.982 36.7267 10.138 36.6787 10.27H29.1187V8.47H35.3467L34.2307 9.316C34.3387 8.764 34.3087 8.272 34.1407 7.84C33.9847 7.408 33.7207 7.066 33.3487 6.814C32.9887 6.562 32.5507 6.436 32.0347 6.436C31.5427 6.436 31.1047 6.562 30.7207 6.814C30.3367 7.054 30.0427 7.414 29.8387 7.894C29.6467 8.362 29.5747 8.932 29.6227 9.604C29.5747 10.204 29.6527 10.738 29.8567 11.206C30.0727 11.662 30.3847 12.016 30.7927 12.268C31.2127 12.52 31.6927 12.646 32.2327 12.646C32.7727 12.646 33.2287 12.532 33.6007 12.304C33.9847 12.076 34.2847 11.77 34.5007 11.386L36.4087 12.322C36.2167 12.79 35.9167 13.204 35.5087 13.564C35.1007 13.924 34.6147 14.206 34.0507 14.41C33.4987 14.614 32.8867 14.716 32.2147 14.716ZM44.3654 14.5V3.25H40.8914V1.09H50.2514V3.25H46.8314V14.5H44.3654ZM50.475 14.5V4.708H52.689V6.886L52.509 6.562C52.737 5.83 53.091 5.32 53.571 5.032C54.063 4.744 54.651 4.6 55.335 4.6H55.911V6.688H55.065C54.393 6.688 53.853 6.898 53.445 7.318C53.037 7.726 52.833 8.302 52.833 9.046V14.5H50.475ZM57.2074 14.5V4.708H59.5654V14.5H57.2074ZM57.2074 3.61V1.09H59.5654V3.61H57.2074ZM61.7425 18.1V4.708H63.9565V6.652L63.7405 6.166C64.0765 5.638 64.5325 5.23 65.1085 4.942C65.6845 4.642 66.3505 4.492 67.1065 4.492C68.0305 4.492 68.8645 4.72 69.6085 5.176C70.3525 5.632 70.9405 6.244 71.3725 7.012C71.8165 7.78 72.0385 8.644 72.0385 9.604C72.0385 10.552 71.8225 11.416 71.3905 12.196C70.9585 12.976 70.3705 13.594 69.6265 14.05C68.8825 14.494 68.0365 14.716 67.0885 14.716C66.3805 14.716 65.7265 14.578 65.1265 14.302C64.5385 14.014 64.0705 13.606 63.7225 13.078L64.1005 12.61V18.1H61.7425ZM66.8185 12.556C67.3585 12.556 67.8385 12.43 68.2585 12.178C68.6785 11.926 69.0025 11.578 69.2305 11.134C69.4705 10.69 69.5905 10.18 69.5905 9.604C69.5905 9.028 69.4705 8.524 69.2305 8.092C69.0025 7.648 68.6785 7.3 68.2585 7.048C67.8385 6.784 67.3585 6.652 66.8185 6.652C66.3025 6.652 65.8345 6.778 65.4145 7.03C65.0065 7.282 64.6825 7.636 64.4425 8.092C64.2145 8.536 64.1005 9.04 64.1005 9.604C64.1005 10.18 64.2145 10.69 64.4425 11.134C64.6825 11.578 65.0065 11.926 65.4145 12.178C65.8345 12.43 66.3025 12.556 66.8185 12.556Z" fill="#0D141C"/>
</svg>
